# xmcd CD database file
# Copyright (C) 1993-1998 Ti Kan
#
# Track frame offsets:
#	182
#	11377
#	24052
#	35017
#	45535
#	57335
#	70847
#	81735
#	91127
#	103820
#	115225
#	127562
#	140165
#	152202
#	162140
#	172132
#
# Disc length: 2416 seconds
#
# Revision: 1
# Processed by: cddbd v1.4b41PL1 Copyright (c) Steve Scherf et al.
# Submitted via: NotifyCDPlayer(CDDB) 1.51.3
#
DISCID=cf096e10
DTITLE=Professor Longhair - Mardi Gras In New Orleans
DYEAR=1900
DGENRE=
TTITLE0=Bye Bye Baby
TTITLE1=She Ain't Got No Hair
TTITLE2=Mardi Gras In New Orleans
TTITLE3=Professor Longhair's Boogie
TTITLE4=Her Mind Is Gone
TTITLE5=Hadacol Bounce
TTITLE6=Oh Well
TTITLE7=Rockin' With Fes
TTITLE8=Curly Haired Baby
TTITLE9=Gone So Long
TTITLE10=East St. Louis Baby
TTITLE11=Boyd's Bounce
TTITLE12=Tipitina
TTITLE13=No Buts No Maybes
TTITLE14=Baby Let Me Hold Your Hand
TTITLE15=Misery
EXTD=
EXTT0=
EXTT1=
EXTT2=
EXTT3=
EXTT4=
EXTT5=
EXTT6=
EXTT7=
EXTT8=
EXTT9=
EXTT10=
EXTT11=
EXTT12=
EXTT13=
EXTT14=
EXTT15=
PLAYORDER=
